M48
;Layer_Color=9474304
;FILE_FORMAT=2:5
INCH,LZ
;TYPE=PLATED
T2F00S00C0.05118
;TYPE=NON_PLATED
%
T02
X0052756Y0069685
X0170866
X0288976
X0407087
X0525197
X0643307
X0761417
X0879527
X0997638
X1115748
X1233858
X1351968
X1470079
X1588189
X1706299
X1824409
Y0187795
Y0305906
X1706299
Y0187795
X1588189
Y0305906
X1470079
Y0187795
X1351968
Y0305906
X1233858
Y0187795
X1115748
Y0305906
X0997638
Y0187795
X0879527
Y0305906
X0761417
Y0187795
X0643307
Y0305906
X0525197
Y0187795
X0407087
Y0305906
X0288976
Y0187795
X0170866
Y0305906
X0052756
Y0187795
Y0424016
X0170866
X0288976
X0407087
X0525197
X0643307
X0761417
X0879527
X0997638
X1115748
X1233858
X1351968
X1470079
X1588189
X1706299
X1824409
Y0542126
X1706299
X1588189
X1470079
X1351968
X1359842Y0533661
X1233858Y0542126
X1115748
X0997638
X0879527Y0542126
X0761417
X0643307
X0525197
X0407087Y0542126
X0288977
X0170866
X0052756
Y0660236
Y0778346
X0170866
Y0660236
X0288977
Y0778346
X0407087
Y0660236
X0525197Y0660236
Y0778346
X0643307
Y0660236
X0761417
Y0778346
X0879527
Y0660236
X0997638Y0660236
Y0778346
X1115748
Y0660236
X1233858
Y0778346
X1351968
Y0660236
X1470079
Y0778346
X1588189
Y0660236
X1706299
Y0778346
X1824409
Y0660236
Y0896457
X1706299
X1588189
X1470079
X1351968
X1233858
X1115748
X0997638
X0879527Y0896457
X0761417
X0643307
X0525197
X0407087Y0896457
X0288977
X0170866
X0052756
X0053295Y1014567
X0171405
X0289515
X0407626
X0525197Y1014567
X0643307
X0761417
X0879527
X0997638
X1115748
X1233858
X1351968
X1470079
X1588189
X1706299
X1824409
Y1132677
X1706299
X1588189
X1470079
X1351968
X1233858
X1115748
X0997638
X0879527
X0761417
X0643307
X0525197
X0407626Y1132677
X0289515
X0171405
X0053295
Y1250787
Y1368898
X0171405
Y1250787
X0289515
Y1368898
X0407626
Y1250787
X0525197Y1250787
Y1368898
X0643307
Y1250787
X0761417
Y1368898
X0879527
Y1250787
X0997638
Y1368898
X1115748
Y1250787
X1233858
Y1368898
X1351968
Y1250787
X1470079
Y1368898
X1588189
Y1250787
X1706299
Y1368898
X1824409
Y1250787
Y1487008
X1706299
X1588189
X1470079
X1351968
X1233858
X1115748
X0997638
X0879527
X0761417
X0643307
X0525197
X0407087
X0288976
X0170866
X0052756
Y1605118
X0170866
X0288976
X0407087
X0525197
X0643307
X0761417
X0879527
X0997638
X1115748
X1233858
X1351968
X1470079
X1588189
X1706299
X1824409
Y1723228
Y1841339
X1706299
X1588189
Y1723228
X1706299
X1470079
Y1841339
X1351968
Y1723228
X1233858
X1115748
Y1841339
X1233858
X0997638
Y1723228
X0879527
Y1841339
X0761417
X0643307
Y1723228
X0761417
X0525197
Y1841339
X0407087
Y1723228
X0288976
X0170866
Y1841339
X0288976
X0052756
Y1723228
M30
