M48
;Layer_Color=9474304
;FILE_FORMAT=2:5
INCH,LZ
;TYPE=PLATED
T2F00S00C0.05118
;TYPE=NON_PLATED
T3F00S00C0.06299
T4F00S00C0.07087
%
T02
X0015748Y0010827
X0133858Y0009843
X0112126Y0104331
X0134449Y0131693
X0015945Y0129921
X0227756Y0104331
X0252362Y0124902
X0251969Y0009843
X0370079Y0010827
X034707Y0104331
X0371322Y0129938
X0464567Y0104331
X0488386Y0129921
X0488189Y0010827
X0606299Y0009843
X0584567Y0104331
X060689Y0131693
X0725591Y012748
X0702319Y0102209
X0724409Y0009843
X084252Y0010827
X0819511Y0104331
X0843763Y0129938
X0937008Y0104331
X0944882Y0067716
X0943307Y0011024
X096063Y0010827
X107874Y0009843
X1057008Y0104331
X1079331Y0131693
X0960827Y0129921
X1172638Y0104331
X1198032Y012748
X119685Y0009843
X1314961Y0010827
X1291952Y0104331
X1316204Y0129938
X1433268Y0129921
X1409252Y010352
X1417421Y0075492
X1433071Y0010827
X1551181Y0009843
X1529449Y0104331
X1551772Y0131693
X1645079Y0104331
X1670472Y012748
X1669291Y0009843
X1787402Y0010827
X1764393Y0104331
X1788645Y0129938
X188189Y0104331
Y022441
X1778937Y0213976
X1787402Y0248031
X1670276Y0247638
X164685Y0223031
X152815Y0222441
X1552362Y0247874
X1433661Y024685
X1409449Y022441
X1306496Y0213976
X1314961Y0248031
X1197835Y0247638
X1174409Y0223031
X1055709Y0222441
X1079921Y0247874
X096122Y024685
X0937008Y022441
X0834055Y0213976
X084252Y0248031
X0725394Y0247638
X0701968Y0223031
X0583268Y0222441
X060748Y0247874
X0488779Y024685
X0464567Y022441
X0361614Y0213976
X0370079Y0248031
X0252953Y0247638
X0229528Y0223031
X0110827Y0222441
X0135039Y0247874
X0016339Y024685
Y0361811
X0109528Y0340236
X0134646Y0364173
X0113189Y0459646
X0229331
X0252756Y0365368
X0227953Y0341496
X0345827Y0335433
X0370945Y0366063
X0464567Y0341929
Y0459449
X0346457Y0460039
X058563Y0459646
X0607087Y0364173
X0581968Y0340236
X0488779Y0361811
X0700394Y0341496
X0725197Y0365762
X0701772Y0459646
X0818898Y0460039
X0843386Y0366063
X0818268Y0335433
X0937008Y0341929
Y0459449
X1058071Y0459646
X1079527Y0364173
X1054409Y0340236
X096122Y0361811
X1172835Y0341496
X1197835Y0365158
X1174213Y0459646
X1291339Y0460039
X1315827Y0366063
X1290709Y0335433
X1409449Y0341929
X1433661Y0361811
X152685Y0340236
X1551968Y0364173
X1530512Y0459646
X1409449Y0459449
X1646654Y0459646
X1670079Y0365368
X1645276Y0341496
X176315Y0335433
X1788268Y0366063
X1763779Y0460039
X188189Y0459449
Y0341929
Y0576772
X1764393
X1788645Y0602379
X1787402Y0483268
X1669291Y0482283
X1645079Y0576772
X1670472Y0599921
X1551772Y0604134
X1529449Y0576772
X1551181Y0482283
X1433071Y0483268
X1409449Y0576772
X1433268Y0602362
X1316204Y0602379
X1291952Y0576772
X1314961Y0483268
X119685Y0482283
X1172638Y0576772
X1198032Y0599921
X1079331Y0604134
X1057008Y0576772
X107874Y0482283
X096063Y0483268
X0960827Y0602362
X0937008Y0576772
X0819511
X0843763Y0602379
X084252Y0483268
X0724409Y0482283
X0700197Y0576772
X0725591Y0599921
X060689Y0604134
X0584567Y0576772
X0606299Y0482283
X0488189Y0483268
X0488386Y0602362
X0464567Y0576771
X034707
X0371322Y0602379
X0370079Y0483268
X0251969Y0482283
X0227756Y0576771
X025315Y0599921
X0134449Y0604134
X0112126Y0576771
X0133858Y0482283
X0015748Y0483268
X0015945Y0602362
X0016339Y0719291
X0110827Y0694882
X0143701Y0715354
X0229528Y0695472
X0252953Y0720791
X0370079Y0720472
X0361614Y0686417
X0464567Y069685
X0488779Y0719291
X0583268Y0694882
X060748Y0720315
X0725394Y0720079
X0701968Y0695472
X0834055Y0686417
X084252Y0720472
X0937008Y069685
X096122Y0719291
X1055709Y0694882
X1079921Y0720315
X1197835Y0720079
X1174409Y0695472
X1306496Y0686417
X1314961Y0720472
X1409449Y069685
X1433661Y0719291
X152815Y0694882
X1552362Y0720315
X1670276Y0720079
X164685Y0695472
X1778937Y0686417
X1787402Y0720472
X188189Y069685
Y081437
Y093189
X1763779Y093248
X1788268Y0838504
X176315Y0807874
X1673071Y083748
X1645276Y0813937
X1646654Y0932087
X1530512
X1551968Y0836614
X152685Y0812677
X1433661Y0834252
X1409449Y081437
Y093189
X1291339Y093248
X1315827Y0838504
X1290709Y0807874
X1197638Y0837809
X1172835Y0813937
X1174213Y0932087
X1058071
X1079528Y0836614
X1054409Y0812677
X096122Y0834252
X0937008Y081437
Y093189
X0818898Y093248
X0843386Y0838504
X0818268Y0807874
X0728189Y083748
X0700394Y0813937
X0701772Y0932087
X058563
X0607087Y0836614
X0581968Y0812677
X0488779Y0834252
X0464567Y081437
Y093189
X0346457Y093248
X0370945Y0838504
X0345827Y0807874
X0252756Y0837809
X0227953Y0813937
X0229331Y0932086
X0113189
X0018504Y0927953
X0015768Y0834252
X0109528Y0812677
X0134646Y0836614
X0134397Y0954724
X0070866Y0943323
X001063Y0958661
X0016484Y1074803
X0134988Y1076575
X0112665Y1049213
X0228295
X0253689Y1072362
X0252507Y0954724
X0370618Y0955709
X0347609Y1049213
X0371861Y107482
X0465106Y1049213
X0488386Y1074803
X0488189Y0955709
X0606299Y0954724
X0584567Y1049213
X060689Y1076575
X0700197Y1049213
X0725591Y1072362
X0724409Y0954724
X084252Y0955709
X0819511Y1049213
X0843763Y107482
X0937008Y1049213
X0960827Y1074803
X096063Y0955709
X107874Y0954724
X1057008Y1049213
X1079331Y1076575
X1172638Y1049213
X1198032Y1072362
X119685Y0954724
X1314961Y0955709
X1291952Y1049213
X1316204Y107482
X1433268Y1074803
X1409449Y1049213
X1433071Y0955709
X1551181Y0954724
X1529449Y1049213
X1551772Y1076575
X1645079Y1049213
X1670472Y1072362
X1669291Y0954724
X1787402Y0955709
X1764393Y1049213
X1788645Y107482
X188189Y1049213
X1881496Y0957874
Y0944488
X188189Y1169291
X1778937Y1158858
X1787402Y1192913
X1670276Y119252
X164685Y1167913
X152815Y1167323
X1552362Y1192756
X1433661Y1191732
X1409449Y1169291
X1306496Y1158858
X1314961Y1192913
X1199287Y119252
X1174409Y1167913
X1055709Y1167323
X1079921Y1192756
X096122Y1191732
X0937008Y1169291
X0834055Y1158858
X084252Y1192913
X0725394Y119252
X0701968Y1167913
X0583268Y1167323
X060748Y1192756
X0488779Y1191732
X0465106Y1169291
X0362153Y1158858
X0370618Y1192913
X0253492Y119252
X0230066Y1167913
X0111366Y1167323
X0135578Y1192756
X0016878Y1191732
Y1306693
X0110066Y1285118
X0135185Y1309055
X0113728Y1404528
X022987
X025315Y1309921
X0228492Y1286378
X0346366Y1280315
X0371484Y1310945
X0465106Y1286811
Y1404331
X0346996Y1404921
X058563Y1404528
X0607087Y1309055
X0581968Y1285118
X0488779Y1306693
X0700394Y1286378
X0728189Y1309921
X0701772Y1404528
X0818898Y1404921
X0843386Y1310945
X0818268Y1280315
X0937008Y1286811
Y1404331
X1058071Y1404528
X1079528Y1309055
X1054409Y1285118
X096122Y1306693
X1172835Y1286378
X119909Y131025
X1174213Y1404528
X1291339Y1404921
X1315827Y1310945
X1290709Y1280315
X1409449Y1286811
X1433661Y1306693
X152685Y1285118
X1551968Y1309055
X1530512Y1404528
X1409449Y1404331
X1646654Y1404528
X1645276Y1286378
X1673071Y1309921
X1788268Y1310945
X176315Y1280315
X1763779Y1404921
X188189Y1404331
Y1286811
Y1521653
X1764393
X1788645Y1547261
X1787402Y142815
X1669291Y1427165
X1645079Y1521653
X1670472Y1544803
X1551772Y1549016
X1529449Y1521653
X1551181Y1427165
X1433071Y142815
X1409449Y1521653
X1433268Y1547244
X1316204Y1547261
X1291952Y1521653
X1314961Y142815
X1199287Y1427165
Y1544803
X1172638Y1521653
X1057008
X1079331Y1549016
X0960827Y1547244
X096063Y142815
X107874Y1427165
X0937008Y1521653
X0819511
X0843763Y1547261
X084252Y142815
X0725319Y1427165
X0725591Y1544803
X0700197Y1521653
X0584567
X060689Y1549016
X0488386Y1547244
X0488189Y142815
X0606299Y1427165
X0464567Y1521653
X034707
X0371322Y1547261
X0370079Y142815
X0251969Y1427165
X0227756Y1521653
X025315Y1544803
X0134449Y1549016
X0112126Y1521653
X0133858Y1427165
X0015748Y142815
X0015945Y1547244
X0016339Y1664173
X0110827Y1639764
X0135039Y1665197
X0252953Y1664961
X0229528Y1640354
X0361614Y1631299
X0370079Y1665354
X0464567Y1641732
X0488779Y1664173
X0583268Y1639764
X060748Y1665197
X0725394Y1664961
X0701968Y1640354
X0834055Y1631299
X084252Y1665354
X0937008Y1641732
X096122Y1664173
X1055709Y1639764
X1079921Y1665197
X1197835Y1664961
X1174409Y1640354
X1306496Y1631299
X1314961Y1665354
X1409449Y1641732
X1433661Y1664173
X152815Y1639764
X1552362Y1665197
X1670276Y1664961
X164685Y1640354
X1778937Y1631299
X1787402Y1665354
X188189Y1641732
Y1759252
X1788268Y1783386
X176315Y1752756
X1673071Y1782362
X1645276Y1758819
X1551968Y1781496
X152685Y1757559
X1433661Y1779134
X1409449Y1759252
X1315827Y1783386
X1290709Y1752756
X1197638Y1782691
X1172835Y1758819
X1079528Y1781496
X1054409Y1757559
X096122Y1779134
X0937008Y1759252
X0843386Y1783386
X0818268Y1752756
X0728189Y1782362
X0700394Y1758819
X0607087Y1781496
X0581968Y1757559
X0488779Y1779134
X0464567Y1759252
X0370945Y1783386
X0345827Y1752756
X0255748Y1782362
X0227953Y1758819
X0134646Y1781496
X0109528Y1757559
X0016339Y1779134
X0113189Y1876969
X0229331
X0346457Y1877362
X0464567Y1876772
X058563Y1876969
X0701772
X0818898Y1877362
X0937008Y1876772
X0952362Y1877953
X0970866
X1058071Y1876969
X1174213
X1291339Y1877362
X1409449Y1876772
X1530512Y1876969
X1646654
X1763779Y1877362
X188189Y1876772
T03
X1408465Y0021752
T04
X1408465Y0039469
M30
