M48
;Layer_Color=9474304
;FILE_FORMAT=2:5
INCH,LZ
;TYPE=PLATED
T1F00S00C0.02800
;TYPE=NON_PLATED
%
T01
X0450591Y0073032
X046998Y0089468
X0491831Y0091535
X0499311Y0085433
X049311Y0032185
X0477165Y0025394
X0468799Y0047343
X053002Y0033366
X056811Y0025984
X0594882Y0065354
X0643602Y0120965
X067565Y0119133
X0905118Y0064173
X1418898Y0117323
X1435827Y0106299
X1418898Y0145339
X1654528Y0172933
X1647638Y0182087
X1653543Y0192913
X1647638Y0202756
X165348Y0213646
X1181039
X1181102Y0192913
X1175197Y0182087
X1181102Y0173228
X1169488Y0202658
X1143307Y0190847
X1143799Y0182382
X07125Y0187303
X0711811Y0200689
X0713091Y0214173
X0687402Y0212598
Y0195571
Y0186319
X0674472Y0207677
X0653839Y0182087
X0661024Y0172441
X0712598Y0172343
X0236221Y0173228
X0236417Y0182185
X0236221Y0192913
X0236319Y0203642
X0236157Y0213646
X020748Y0173327
X019685Y0644587
X0221161Y0654528
X0236221Y0645669
Y0665354
X0230315Y0675197
X0236158Y0686087
X0708598Y0686087
X0702756Y0675197
X0708661Y0665354
X0702756Y0654528
X0670472Y0644882
X1125984Y0638583
X113622Y0645276
X1169291Y0638189
X1175197Y0654528
X1181102Y0665354
X1169193Y0668996
X1181039Y0686087
X1643701Y0678839
X165348Y0686087
X1658366Y0673721
X1652756Y0664961
X1653543Y0654035
X165374Y0642618
X1612992Y064252
X1819291Y0949606
X1647638Y1126968
X1653543Y1137795
X1647638Y1147638
X165348Y1158528
X1612992Y1116929
X1174803Y1127559
X117628Y1143307
X1187697Y1146063
X1181039Y1158528
X113622Y1116929
X0708661Y1137795
X0702756Y1147638
X0708598Y1158528
X0688189Y1126476
X0674409Y111811
X0236759Y111811
X0240551Y1139665
X0230854Y1147638
X0236696Y1158528
X0217717Y1124705
X0198721Y1114961
X0192323Y1589272
X0209646Y1599902
X0236221Y1590551
Y1610236
X0230315Y1620079
X0236157Y1630968
X0708598
X0702756Y1620079
X0708661Y1610236
X0686122Y159813
X0674803Y158937
X1141339Y1589764
X1171063Y1599409
X1175197Y1618012
X1186834Y1620004
X1181039Y1630968
X165348
X1647638Y1620079
X1653543Y1610236
X1647638Y1599409
X1612992Y1588976
X0939764Y1825591
M30
